# xmcd
#
# Track frame offsets:
#	150
#	9696
#	21271
#	32475
#	36625
#	45268
#	55156
#	69903
#	91703
#	104915
#	114853
#	126584
#	137506
#	145584
#	157459
#	163556
#	172756
#	188275
#	205084
#	216143
#	228603
#	240581
#	249903
#	267131
#	274512
#	281756
#	292234
#	301734
#	314550
#
# Disc length: 4289 seconds
#
# Revision: 1
# Processed by: cddbd v1.4b41PL1 Copyright (c) Steve Scherf et al.
# Submitted via: audiograbber 1.80
#
DISCID=9a10bf1d
DTITLE=Klafoif - Die Foift Klass Vo Huuse Singt Laessigi Lieder
DYEAR=1900
DGENRE=
TTITLE0='s Kokosnusssaeftli
TTITLE1=Mein Bester Freund
TTITLE2=So-n-e Mittwochnomittag
TTITLE3=Was Wosch Mi Denn Jetzt No Alles Lehre
TTITLE4=Cervelat
TTITLE5=Banana - Senor
TTITLE6=Ueber Sieben Bruecken
TTITLE7=Ciao, Ciao Svizzera
TTITLE8=Sailing
TTITLE9=Marmor, Stein Und Eisen Bricht
TTITLE10=De Kiosk
TTITLE11='s Traeumli
TTITLE12=Paperblues
TTITLE13=Anita
TTITLE14=Lager-Boogie
TTITLE15=Lustig Ist Das Zigeunerleben
TTITLE16=Let It Be
TTITLE17=Memory
TTITLE18=Laudato Si
TTITLE19='s Hippigspaenschtli
TTITLE20=Das Alte Haus Von Rocky-Tocky
TTITLE21=An Den Ufern Des Mexico Rivers
TTITLE22=Fata Morgana
TTITLE23=In San Juan
TTITLE24=I Moecht Emol En Lehrer Ha
TTITLE25=Die Bloede-n-Ufzgi
TTITLE26=In Einen Harung
TTITLE27=Wen I Mol Alt Bi
TTITLE28=O, Du Stille Zeit
EXTD=
EXTT0=
EXTT1=
EXTT2=
EXTT3=
EXTT4=
EXTT5=
EXTT6=
EXTT7=
EXTT8=
EXTT9=
EXTT10=
EXTT11=
EXTT12=
EXTT13=
EXTT14=
EXTT15=
EXTT16=
EXTT17=
EXTT18=
EXTT19=
EXTT20=
EXTT21=
EXTT22=
EXTT23=
EXTT24=
EXTT25=
EXTT26=
EXTT27=
EXTT28=
PLAYORDER=
